/* XPM */
static char * gnucash_48_xpm[] = {
"48 48 239 2",
"  	c None",
". 	c #56583E",
"+ 	c #5D5E41",
"@ 	c #6D6E4E",
"# 	c #767552",
"$ 	c #82815B",
"% 	c #797652",
"& 	c #7D7A56",
"* 	c #827D5A",
"= 	c #95926A",
"- 	c #B1AB7C",
"; 	c #B7B082",
"> 	c #898561",
", 	c #797956",
"' 	c #696A4A",
") 	c #616144",
"! 	c #7C7D57",
"~ 	c #7C7B59",
"{ 	c #A39E77",
"] 	c #A39C71",
"^ 	c #9B966B",
"/ 	c #99926A",
"( 	c #938E65",
"_ 	c #797852",
": 	c #6B6B4D",
"< 	c #646648",
"[ 	c #67684A",
"} 	c #7E7D5A",
"| 	c #8E8962",
"1 	c #9E986D",
"2 	c #A19A6E",
"3 	c #928D69",
"4 	c #959167",
"5 	c #ABA374",
"6 	c #B1A979",
"7 	c #A79F73",
"8 	c #AEA67A",
"9 	c #7A7A5A",
"0 	c #787756",
"a 	c #757251",
"b 	c #87815D",
"c 	c #A29A71",
"d 	c #B9AE7E",
"e 	c #BAA97D",
"f 	c #C7B68B",
"g 	c #BEB485",
"h 	c #B7AE7D",
"i 	c #BAB181",
"j 	c #A89C6E",
"k 	c #726E4E",
"l 	c #A9A17A",
"m 	c #958E66",
"n 	c #73734F",
"o 	c #3F412D",
"p 	c #727062",
"q 	c #A1A09B",
"r 	c #9A9993",
"s 	c #6C6B62",
"t 	c #635E46",
"u 	c #A89F73",
"v 	c #BDB17F",
"w 	c #CABA8B",
"x 	c #C4B484",
"y 	c #C1B785",
"z 	c #BEB282",
"A 	c #ADA67D",
"B 	c #B6AE82",
"C 	c #313323",
"D 	c #908E7D",
"E 	c #A3A19E",
"F 	c #BEBDBB",
"G 	c #BAB9B6",
"H 	c #B5B4B2",
"I 	c #B1AFAD",
"J 	c #ACABA8",
"K 	c #6B6963",
"L 	c #6E6B56",
"M 	c #A0976F",
"N 	c #C3B789",
"O 	c #8A865F",
"P 	c #85835D",
"Q 	c #AAA577",
"R 	c #2E2F21",
"S 	c #1B1C13",
"T 	c #8E8C69",
"U 	c #78775F",
"V 	c #9A9996",
"W 	c #A8A6A3",
"X 	c #9E9D9A",
"Y 	c #7D7B77",
"Z 	c #5D5B54",
"` 	c #7D7655",
" .	c #97926C",
"..	c #373726",
"+.	c #14150F",
"@.	c #1D1E14",
"#.	c #838161",
"$.	c #6D694B",
"%.	c #474533",
"&.	c #585750",
"*.	c #959390",
"=.	c #918F8B",
"-.	c #8C8A86",
";.	c #575650",
">.	c #46443B",
",.	c #BEB482",
"'.	c #1F2116",
").	c #5D5C3E",
"!.	c #6D714D",
"~.	c #4C4731",
"{.	c #918F8C",
"].	c #878681",
"^.	c #83817D",
"/.	c #7E7C78",
"(.	c #63605B",
"_.	c #4A483F",
":.	c #797352",
"<.	c #212318",
"[.	c #000000",
"}.	c #595636",
"|.	c #616242",
"1.	c #A29D6E",
"2.	c #9A9367",
"3.	c #2B2B1C",
"4.	c #4A4945",
"5.	c #848380",
"6.	c #7A7873",
"7.	c #75736E",
"8.	c #716E69",
"9.	c #6C6A65",
"0.	c #55533D",
"a.	c #43412E",
"b.	c #161710",
"c.	c #202117",
"d.	c #6B6C4B",
"e.	c #93926E",
"f.	c #4B4C2C",
"g.	c #807B55",
"h.	c #BAB285",
"i.	c #BDB285",
"j.	c #867E5A",
"k.	c #69653F",
"l.	c #3B3B2E",
"m.	c #52514D",
"n.	c #676560",
"o.	c #302E29",
"p.	c #171810",
"q.	c #292B1E",
"r.	c #646444",
"s.	c #86815A",
"t.	c #878663",
"u.	c #6F6E51",
"v.	c #2B2C23",
"w.	c #100C04",
"x.	c #10110B",
"y.	c #0F100B",
"z.	c #6F7151",
"A.	c #B1A576",
"B.	c #B7AB7E",
"C.	c #C2B382",
"D.	c #686942",
"E.	c #525335",
"F.	c #4B4932",
"G.	c #413F2D",
"H.	c #1E1E18",
"I.	c #4E4C48",
"J.	c #2F2D28",
"K.	c #0B0B08",
"L.	c #25261B",
"M.	c #0A0A07",
"N.	c #5F5A41",
"O.	c #5A563D",
"P.	c #5C6042",
"Q.	c #737756",
"R.	c #726E47",
"S.	c #A39A7C",
"T.	c #B3AB8A",
"U.	c #ABA481",
"V.	c #575541",
"W.	c #23231F",
"X.	c #0F0F0A",
"Y.	c #27291C",
"Z.	c #040503",
"`.	c #666146",
" +	c #7B774F",
".+	c #535838",
"++	c #B9AF81",
"@+	c #C5BB8E",
"#+	c #C3B890",
"$+	c #B3A883",
"%+	c #938D65",
"&+	c #3D3B2A",
"*+	c #9B946C",
"=+	c #524F39",
"-+	c #746F4E",
";+	c #908A63",
">+	c #535837",
",+	c #6F6B45",
"'+	c #9A986A",
")+	c #C1B682",
"!+	c #C6B987",
"~+	c #CBBD8E",
"{+	c #C4B78E",
"]+	c #4E4D36",
"^+	c #58533C",
"/+	c #393727",
"(+	c #707251",
"_+	c #807C54",
":+	c #A29A6C",
"<+	c #C3B885",
"[+	c #50523A",
"}+	c #615D42",
"|+	c #4E4A35",
"1+	c #76744E",
"2+	c #6C6C4C",
"3+	c #0F0C05",
"4+	c #6C664A",
"5+	c #55513A",
"6+	c #393F27",
"7+	c #88815B",
"8+	c #B1A77A",
"9+	c #474A32",
"0+	c #26271C",
"a+	c #89825E",
"b+	c #343324",
"c+	c #807A58",
"d+	c #45422F",
"e+	c #6A6447",
"f+	c #645F45",
"g+	c #2D2D1F",
"h+	c #232419",
"i+	c #6A6649",
"j+	c #686347",
"k+	c #504D36",
"l+	c #5B583F",
"m+	c #4A4632",
"n+	c #12120C",
"o+	c #29271C",
"p+	c #312F22",
"                                                                                                ",
"                                                                                                ",
"                                                                                                ",
"                                                                                                ",
"                                                                                                ",
"                                                                                                ",
"                                                                                                ",
"                                                        . +                                     ",
"                                                      @ # $ % &                                 ",
"                                                    * = - ; > > , ' )                           ",
"                                                ! ~ ~ { ] ^ $ / ( _ : < [                       ",
"                                              } | 1 2 3 | 4 5 6 7 8 - | [ 9 0 a , #             ",
"                                            a b c d e f g d h ( = i 6 j k = l m n o             ",
"                                      p q r s t u v w x y z 4 ( ^ ( 6 2 & A B ^ . C             ",
"                                  D E F G H I J K L M z N 8 O ( P Q d 4 $ l = ) R S             ",
"                                T U V G H I J W E X Y Z ` = ( ( 6 h v 6  .3 ' ..+.@.            ",
"                          9 #.$.0 #.%.&.X J W E X V *.=.-.;.>.` d ,.,.,.A } C +.'.S             ",
"                      ).!.$ % m A ^ A > ~.Z {.X V *.=.-.].^./.(._.:.v 8 , o S <.@.+.[.          ",
"                > }.).|., Q 1.; 5 8 1.2.8 > 3.4.5.=.-.].^./.6.7.8.9.>.0.a.b.c.S S '.[.[.        ",
"            # d.|.9 e.~ f.g.h.i d i 5 d i.j.k.} l.m.].^./.6.7.8.9.n.(.o.p.<.+.@.q.S [.[.        ",
"          2 r.) 9 T | # r.s.i.z z 6 i z i.^ k.! t.u.v.4.6.7.8.9.n.(.o.w.x.+.'.R +.y.[.[.        ",
"          2 - # ' z.< ) u.= h.z d A.z B.C.h.1 D.E.E.F.G.H.I.9.n.(.J.w.w.K.<.L.+.M.[.[.[.        ",
"          N.O.| 2 E.P.Q., 1 i.C.C.v v j A.C.z 2.R.b S.T.U.V.W.I.o.w.w.w.X.Y.p.Z.[.[.[.[.        ",
"          m c `.$.m  +f..+| B ++z ,.,.v C.x x y @+#+$+c %+%+a q.w.w.w.w.X.x.[.[.[.[.[.          ",
"          m &+& *+=+-+;+>+E.r.,+s.'+6 C.C.)+!+w ~+{+/ n 9 : ]+@.w.w.w.w.X.[.[.[.[.[.[.          ",
"          ` 7 $.^+b j./+k | (+@ n & _+:+y !+<+!+C.{+ .z.@ [+y.'.w.w.w.w.[.[.[.[.[.[.            ",
"          m }+` 2 }+`.| }+|+:.1+|.T a -+l g d g B | 2+[ . @.S S w.w.3+[.[.[.[.[.[.              ",
"          :.g.4+`.* ;+|+}+m 5+O.& |.6+E., 7+j.O 8+{ ) 9+p.c.+.0+w.3+[.[.[.[.[.[.                ",
"            4+O.a+5+=+( $.b+a c+d+5+b 2+$.a  .j.g.} [+b.'.S q.+.3+[.[.[.[.[.[.[.                ",
"                e+`.k N.N.b f+d+` }+g+`.* # @ n 0 E.@.S S h++.X.[.[.[.[.[.[.[.                  ",
"                    f+i+j+k+a :.5+|+a O.&+i+% n N.'.@.S Y.S X.[.[.[.[.[.[.[.                    ",
"                      a.O.`.l+d+:.i+G.|+$.m+&+b.S S S '.X.x.[.[.[.[.[.[.[.                      ",
"                      [.[.&+m+i+G.5+a |+&+N.d+h+b.<.<.S x.[.[.[.[.[.[.[.[.                      ",
"                      [.[.[.n+G.]+}+d+O.i+a.m+g+L.S +.x.[.[.[.[.[.[.[.[.                        ",
"                      [.[.[.[.[.c.m+=+5+&+i+^+<.@.S x.[.[.[.[.[.[.[.[.                          ",
"                        [.[.[.[.[.[.o+d+]+L.m+S S y.[.[.[.[.[.[.[.[.[.                          ",
"                            [.[.[.[.[.[.p+/+/+@.x.[.[.[.[.[.[.[.[.[.                            ",
"                              [.[.[.[.[.[.X...X.[.[.[.[.[.[.[.[.[.[.                            ",
"                                  [.[.[.[.[.[.[.[.[.[.[.[.[.[.[.[.                              ",
"                                      [.[.[.[.[.[.[.[.[.[.[.[.[.                                ",
"                                        [.[.[.[.[.[.[.[.[.[.[.[.                                ",
"                                            [.[.[.[.[.[.[.[.[.                                  ",
"                                                                                                ",
"                                                                                                ",
"                                                                                                ",
"                                                                                                ",
"                                                                                                ",
"                                                                                                "};
