/* XPM */
static char * gnucash_32_xpm[] = {
"32 32 293 2",
"  	c None",
". 	c #54543B",
"+ 	c #727250",
"@ 	c #514F37",
"# 	c #636045",
"$ 	c #9F9B71",
"% 	c #ADA679",
"& 	c #898560",
"* 	c #85835E",
"= 	c #6B6B4A",
"- 	c #373827",
"; 	c #8B8861",
"> 	c #948F66",
", 	c #96916B",
"' 	c #969167",
") 	c #A19A6E",
"! 	c #A39C70",
"~ 	c #9B966C",
"{ 	c #88855F",
"] 	c #5F6045",
"^ 	c #50503A",
"/ 	c #4E4D37",
"( 	c #4F4E37",
"_ 	c #48473D",
": 	c #787355",
"< 	c #ABA275",
"[ 	c #BDAE80",
"} 	c #C3B587",
"| 	c #BCB181",
"1 	c #959168",
"2 	c #AEA678",
"3 	c #A99F71",
"4 	c #827E5B",
"5 	c #A7A178",
"6 	c #87835D",
"7 	c #4A4B34",
"8 	c #7F7E7A",
"9 	c #ADACA7",
"0 	c #A6A4A1",
"a 	c #95938B",
"b 	c #827D66",
"c 	c #A19771",
"d 	c #C0B484",
"e 	c #B8AE80",
"f 	c #8F8B62",
"g 	c #8E8A62",
"h 	c #A9A274",
"i 	c #A29C6F",
"j 	c #8E8A64",
"k 	c #A39D75",
"l 	c #616044",
"m 	c #2A2C1E",
"n 	c #454331",
"o 	c #7F7D60",
"p 	c #87867F",
"q 	c #A6A5A2",
"r 	c #ADACA9",
"s 	c #A7A6A3",
"t 	c #9F9E9B",
"u 	c #8C8B87",
"v 	c #747166",
"w 	c #807D62",
"x 	c #7F7A59",
"y 	c #A69E71",
"z 	c #BAB07F",
"A 	c #B8AE7D",
"B 	c #98936D",
"C 	c #68674A",
"D 	c #24251A",
"E 	c #1A1B12",
"F 	c #5A5C40",
"G 	c #7D7B58",
"H 	c #8E8863",
"I 	c #95916A",
"J 	c #848061",
"K 	c #6D6956",
"L 	c #82807B",
"M 	c #9D9B98",
"N 	c #999895",
"O 	c #93918E",
"P 	c #8C8A86",
"Q 	c #7B7974",
"R 	c #6B6860",
"S 	c #6D6955",
"T 	c #9F966C",
"U 	c #B6AD7D",
"V 	c #787756",
"W 	c #323424",
"X 	c #1D1E14",
"Y 	c #181911",
"Z 	c #5E5C42",
"` 	c #676646",
" .	c #6B6B4B",
"..	c #7A7953",
"+.	c #A59F72",
"@.	c #B5AD7E",
"#.	c #B1A87A",
"$.	c #A49E6F",
"%.	c #AEA578",
"&.	c #6F6B4C",
"*.	c #52513F",
"=.	c #71706A",
"-.	c #85837F",
";.	c #84827E",
">.	c #7E7C78",
",.	c #76746F",
"'.	c #706E69",
").	c #615F59",
"!.	c #4B483B",
"~.	c #2B2B1E",
"{.	c #1B1C13",
"].	c #1E1F15",
"^.	c #000000",
"/.	c #686847",
"(.	c #6D6D4E",
"_.	c #8A8864",
":.	c #7F7E5A",
"<.	c #696745",
"[.	c #A9A176",
"}.	c #B7AD7E",
"|.	c #BCB183",
"1.	c #858058",
"2.	c #76754F",
"3.	c #6A6A50",
"4.	c #525246",
"5.	c #676561",
"6.	c #787671",
"7.	c #6A6863",
"8.	c #585651",
"9.	c #27241E",
"0.	c #14150E",
"a.	c #1A1B13",
"b.	c #232519",
"c.	c #15160F",
"d.	c #5C583F",
"e.	c #8C8861",
"f.	c #7C7A56",
"g.	c #646647",
"h.	c #656648",
"i.	c #7E7D5A",
"j.	c #AFA87C",
"k.	c #BEB181",
"l.	c #B7AB7B",
"m.	c #B9AD7E",
"n.	c #B8AB7C",
"o.	c #B6AC7E",
"p.	c #88845A",
"q.	c #5F5E3D",
"r.	c #666347",
"s.	c #5E5A46",
"t.	c #4F4D42",
"u.	c #575551",
"v.	c #56534E",
"w.	c #1D1A14",
"x.	c #100C04",
"y.	c #13140E",
"z.	c #212218",
"A.	c #0C0C08",
"B.	c #020201",
"C.	c #57533B",
"D.	c #827C5A",
"E.	c #7A7554",
"F.	c #7A7652",
"G.	c #60613F",
"H.	c #70714D",
"I.	c #ACA479",
"J.	c #BDB181",
"K.	c #BEB281",
"L.	c #BBB07E",
"M.	c #BAAC7C",
"N.	c #C2B383",
"O.	c #B8AD7D",
"P.	c #ABA279",
"Q.	c #AEA480",
"R.	c #A39C75",
"S.	c #888360",
"T.	c #4D4C39",
"U.	c #232119",
"V.	c #11120C",
"W.	c #0D0D09",
"X.	c #000100",
"Y.	c #5E5940",
"Z.	c #686447",
"`.	c #807B58",
" +	c #6B6649",
".+	c #757050",
"++	c #606140",
"@+	c #676746",
"#+	c #74714C",
"$+	c #8A885F",
"%+	c #A89F71",
"&+	c #BEB180",
"*+	c #C3B784",
"=+	c #C7B988",
"-+	c #C6B88B",
";+	c #A69E76",
">+	c #737351",
",+	c #68694B",
"'+	c #2F3021",
")+	c #141209",
"!+	c #060604",
"~+	c #787252",
"{+	c #837C59",
"]+	c #6E694B",
"^+	c #716C4D",
"/+	c #656145",
"(+	c #6F6C4D",
"_+	c #6F6E4B",
":+	c #7D7B59",
"<+	c #7C7854",
"[+	c #A19A71",
"}+	c #BFB483",
"|+	c #B1A77C",
"1+	c #86835F",
"2+	c #656749",
"3+	c #3D3F2C",
"4+	c #141109",
"5+	c #0F0C04",
"6+	c #080602",
"7+	c #726D4D",
"8+	c #6D684B",
"9+	c #757151",
"0+	c #6C674A",
"a+	c #6A6548",
"b+	c #666246",
"c+	c #676347",
"d+	c #616042",
"e+	c #55573A",
"f+	c #6C6B4B",
"g+	c #857E5A",
"h+	c #89835E",
"i+	c #9D966D",
"j+	c #6F6E4F",
"k+	c #2D2F1F",
"l+	c #1C1D14",
"m+	c #1C1D15",
"n+	c #15130A",
"o+	c #060502",
"p+	c #57523B",
"q+	c #625E43",
"r+	c #666146",
"s+	c #6A6549",
"t+	c #5E5A40",
"u+	c #615C42",
"v+	c #54523A",
"w+	c #747050",
"x+	c #777653",
"y+	c #797754",
"z+	c #72704E",
"A+	c #3E3F2B",
"B+	c #1F2016",
"C+	c #171811",
"D+	c #080805",
"E+	c #54503A",
"F+	c #5F5B40",
"G+	c #656245",
"H+	c #656044",
"I+	c #5A563D",
"J+	c #5F5C41",
"K+	c #504C36",
"L+	c #615D42",
"M+	c #59593D",
"N+	c #3A3828",
"O+	c #1C1E14",
"P+	c #191B12",
"Q+	c #0E0E0A",
"R+	c #2C2B1E",
"S+	c #4E4A35",
"T+	c #5A563E",
"U+	c #59553D",
"V+	c #5C593F",
"W+	c #4D4A35",
"X+	c #504C37",
"Y+	c #2A2A1D",
"Z+	c #181910",
"`+	c #080906",
" @	c #313022",
".@	c #504D37",
"+@	c #4E4B35",
"@@	c #4F4C36",
"#@	c #353424",
"$@	c #070704",
"%@	c #030302",
"&@	c #14130D",
"*@	c #3D3A2A",
"=@	c #494732",
"-@	c #42402E",
";@	c #2D2D1F",
">@	c #090A07",
",@	c #15140F",
"'@	c #2F2E20",
")@	c #232318",
"!@	c #090906",
"                                                                ",
"                                                                ",
"                                                                ",
"                                                                ",
"                                                                ",
"                                    . + @                       ",
"                                  # $ % & * = -                 ",
"                                ; > , ' ) ! ~ { ] ^ / (         ",
"                            _ : < [ } | ! 1 2 3 4 5 6 7         ",
"                        8 9 0 a b c d e f g h i j k l m         ",
"                    n o p q r s t u v w x y z A B C D E         ",
"                F G H I J K L M N O P Q R S T U V W X Y         ",
"          Z `  ...+.@.#.$.%.&.*.=.-.;.>.,.'.).!.~.{.X ].^.      ",
"        /.(._.:.<.[.| U }.|.1.2.3.4.5.6.'.7.8.9.0.a.b.c.^.      ",
"      d.e.f.g.h.i.j.k.l.m.n.o.p.q.r.s.t.u.v.w.x.y.z.A.B.^.      ",
"      C.D.E.F.G.H.I.J.K.L.M.N.O.P.Q.R.S.T.U.x.x.V.W.X.^.^.      ",
"      Y.Z.`. +.+++@+#+$+%+&+*+=+-+;+>+,+'+)+x.x.!+^.^.^.        ",
"      Y.~+{+]+^+/+(+_+:+<+[+}+}+|+1+2+3+Y 4+5+6+^.^.^.^.        ",
"        7+8+9+0+a+b+c+d+e+f+g+h+i+j+k+l+m+n+o+^.^.^.^.          ",
"          p+q+8+r+s+t+u+v+w+x+y+z+A+E B+C+D+^.^.^.^.            ",
"              E+F+G+H+I+J+K+L+M+N+O+X P+!+^.^.^.^.              ",
"              Q+R+S+T+U+V+W+X+Y+E B+Z+`+^.^.^.^.^.              ",
"              ^.^.D+ @.@+@I+@@#@B+c.$@^.^.^.^.^.                ",
"                ^.^.%@&@*@=@-@;@Y >@^.^.^.^.^.                  ",
"                    ^.^.^.,@'@)@$@^.^.^.^.^.^.                  ",
"                      ^.^.^.!@!@^.^.^.^.^.^.                    ",
"                          ^.^.^.^.^.^.^.^.                      ",
"                            ^.^.^.^.^.^.^.                      ",
"                                                                ",
"                                                                ",
"                                                                ",
"                                                                "};
