/* XPM */
static char * gnucash_16_xpm[] = {
"16 16 80 1",
" 	c None",
".	c #3B3B2A",
"+	c #6B684A",
"@	c #9E996F",
"#	c #948F67",
"$	c #716F4F",
"%	c #5A5956",
"&	c #7F7C70",
"*	c #A39973",
"=	c #BEB283",
"-	c #959167",
";	c #A8A173",
">	c #97926B",
",	c #57573D",
"'	c #444330",
")	c #7A7658",
"!	c #888576",
"~	c #9D9B98",
"{	c #969591",
"]	c #7F7A60",
"^	c #B2A879",
"/	c #6A694C",
"(	c #1D1E14",
"_	c #56563C",
":	c #777554",
"<	c #8C8860",
"[	c #B6AD7D",
"}	c #B1A87A",
"|	c #6F6C4D",
"1	c #6D6C60",
"2	c #787672",
"3	c #706E69",
"4	c #4B4841",
"5	c #000000",
"6	c #817D59",
"7	c #686948",
"8	c #928E67",
"9	c #BCB07F",
"0	c #BAAD7D",
"a	c #AEA476",
"b	c #87825F",
"c	c #767157",
"d	c #47453C",
"e	c #130F08",
"f	c #15150E",
"g	c #030402",
"h	c #787353",
"i	c #706B4C",
"j	c #676546",
"k	c #7A7954",
"l	c #A1986D",
"m	c #C2B685",
"n	c #A9A077",
"o	c #5F6044",
"p	c #1C1B11",
"q	c #0E0A03",
"r	c #010101",
"s	c #56523A",
"t	c #6C684A",
"u	c #686447",
"v	c #625E43",
"w	c #626144",
"x	c #807C58",
"y	c #6F6D4D",
"z	c #202217",
"A	c #14140D",
"B	c #010100",
"C	c #4F4C36",
"D	c #5C583F",
"E	c #56533B",
"F	c #4D4B35",
"G	c #242419",
"H	c #16170F",
"I	c #020201",
"J	c #26251A",
"K	c #4B4833",
"L	c #3D3B2A",
"M	c #16160F",
"N	c #050503",
"O	c #191911",
"                ",
"                ",
"         .      ",
"        +@#$    ",
"      %&*=-;>,  ",
"    ')!~{&]^/(  ",
"  _:<[}|1234((5 ",
"  67890abcdefg5 ",
"  hijklmnopqr5  ",
"  stuvwxyzAB5   ",
"    CDEFGHr5    ",
"    IJKLMr55    ",
"     5NOr55     ",
"       5555     ",
"                ",
"                "};
