/* XPM */
static char * dropbar_xpm[] = {
"18 18 5 1",
" 	c None",
".	c #000000",
"+	c #008400",
"@	c #FF0000",
"#	c #FF7BFF",
"                  ",
"                  ",
" .          ...   ",
" .          .+.   ",
" .          .+.   ",
" .          .+.   ",
" .          .+.   ",
" .        ...+.   ",
" .        .@.+.   ",
" .    ... .@...   ",
" .    .#. .@.     ",
" .  ...#. ...     ",
" .  .@.#.         ",
" .  .@...         ",
" .  ...           ",
" ................ ",
"                  ",
"                  "};
