/* XPM */
static char * minmax_xpm[] = {
"18 18 3 1",
" 	c None",
".	c #000000",
"+	c #0000C0",
"                  ",
"                  ",
" .           +    ",
" .           +    ",
" .           +    ",
" .           +    ",
" .           +    ",
" .         . +    ",
" .         . +    ",
" .   . +   . +    ",
" .   . +   .      ",
" .   . +   .      ",
" .   . +          ",
" .   . +          ",
" .   .            ",
" ................ ",
"                  ",
"                  "};
