/* XPM */
static char const * const boxplot_icon [] = {
/* width height num_colors chars_per_pixel */
"    18   18        9            1",
/* colors */
". c #000000",
"# c #ff0000",
"a c #00ffff",
"b c #008400",
"c c #008484",
"d c #848484",
"e c #c6c6c6",
"f c #ffff00",
"g c None",
/* pixels */
"gggggggggggggggggg",
"gggggggggggg.ggggg",
"g.gggggggggg...ggg",
"g.gggggggggg.ggggg",
"g.gg.ggg.ggg.ggggg",
"g.gg.ggg...ggggggg",
"g.gg...g.ggg...ggg",
"g.gg.ggg.ggg.a.ggg",
"g.gggggggggg.a.ggg",
"g.gg...ggggg.a.ggg",
"g.gg.a.ggggg.a.ggg",
"g.gg.a.g...g.a.ggg",
"g.gg.a.g.a.g.a.ggg",
"g.gg.a.g.a.g.a.ggg",
"g.gg.a.g.a.g.a.ggg",
"g................g",
"gggggggggggggggggg",
"gggggggggggggggggg"
};
