/* XPM */
static char * surface_icon [] = {
/* width height num_colors chars_per_pixel */
"    18   18        9            1",
/* colors */
". c #000000",
"# c #ff0000",
"a c #00ffff",
"b c #008400",
"c c #008484",
"d c #848484",
"e c #c6c6c6",
"f c #ffff00",
"g c None",
/* pixels */
"gggggggggggggggggg",
"gggggg..........gg",
"ggggg.g.ggggggg.gg",
"gggg.gg.ggggggg.gg",
"ggg.ggg.....dgg.gg",
"gg.ggg.bbb.b..g.gg",
"g.ggg.bbb.bbb...gg",
"g.gg.........gg.gg",
"g.g.#bb.bbb.ggg.gg",
"g.g.##b.b##.....gg",
"g..###.###.gggg.gg",
"g..###.###.ggg.ggg",
"g.........ggg.gggg",
"g.gggggggggg.ggggg",
"g.ggggggggg.gggggg",
"g..........ggggggg",
"gggggggggggggggggg",
"gggggggggggggggggg"
};
