/* XPM */
static char * left_arrow_small_xpm[] = {
"13 14 86 1",
" 	c None",
".	c #AC9B8E",
"+	c #8D5C3F",
"@	c #A26A47",
"#	c #8F603E",
"$	c #432214",
"%	c #8A4629",
"&	c #9E5A39",
"*	c #B6754F",
"=	c #8A5D42",
"-	c #974F31",
";	c #A85D3A",
">	c #AC603F",
",	c #B36D48",
"'	c #BA7A56",
")	c #684937",
"!	c #975135",
"~	c #B66C48",
"{	c #C57653",
"]	c #C27552",
"^	c #C37650",
"/	c #CB805C",
"(	c #C58664",
"_	c #8F5036",
":	c #BE704D",
"<	c #CE825B",
"[	c #D38560",
"}	c #D58761",
"|	c #D58862",
"1	c #D78A63",
"2	c #DE9471",
"3	c #C98F73",
"4	c #7F5846",
"5	c #9D6F58",
"6	c #C97B56",
"7	c #D88A65",
"8	c #DB8D67",
"9	c #E19069",
"0	c #E3946D",
"a	c #EA9B75",
"b	c #EBA47F",
"c	c #E59A75",
"d	c #AD6B4E",
"e	c #7D4E3A",
"f	c #E3B29A",
"g	c #D68963",
"h	c #E1916C",
"i	c #E79870",
"j	c #EA9E79",
"k	c #F0A682",
"l	c #E7A37F",
"m	c #BD7656",
"n	c #693924",
"o	c #26170F",
"p	c #040302",
"q	c #000000",
"r	c #E7B097",
"s	c #E3936A",
"t	c #ECA179",
"u	c #EFA781",
"v	c #EA9F7C",
"w	c #C77E5E",
"x	c #7E4833",
"y	c #3C2118",
"z	c #0B0604",
"A	c #E9AC90",
"B	c #EEA47F",
"C	c #EBA27D",
"D	c #BF7859",
"E	c #844830",
"F	c #402318",
"G	c #130B07",
"H	c #B09488",
"I	c #EFA685",
"J	c #CE8361",
"K	c #87462F",
"L	c #3C1F13",
"M	c #0F0805",
"N	c #E5BAA8",
"O	c #9F5E43",
"P	c #4F271B",
"Q	c #170D09",
"R	c #020100",
"S	c #684A3D",
"T	c #1B0F0A",
"U	c #050302",
".            ",
"+@#          ",
"$%&*=        ",
" -;>,')      ",
" !~{]^/(     ",
" _:<[}|1234  ",
" 567890abcde ",
" fghijklmnopq",
" rstuvwxyzqq ",
" ABCDEFGqq   ",
"HIJKLMqq     ",
"NOPQRq       ",
"STUq         ",
" q           "};
