/* XPM */
static char*acctdele[]={
"22 22 5 1",
". c #c0c0c0",
"# c #800000",
"a c #000000",
"b c #f8fcf8",
"c c #808000",
"......................",
"......................",
".###..####.#....####..",
".#..#.#....#....#.....",
".#..#.###..#....###...",
".###..####.####.####..",
"......................",
".......aaa............",
".....aabbbaaaaaaaaaaa.",
"....abbbbbbbbbbbbbbbba",
"aaaaaaaaaaaaaaaaabbbba",
"acccccccccccccccabbbba",
".acccccccccccccccabbba",
".acccccccccccccccabbba",
"..acccccccccccccccabba",
"..acccccccccccccccabba",
"...acccccccccccccccaba",
"...acccccccccccccccaba",
"....acccccccccccccccaa",
"....acccccccccccccccaa",
".....aaaaaaaaaaaaaaaaa",
"......................"};
