<?xml version="1.0" standalone="no"?>
<!DOCTYPE svg PUBLIC "-//W3C//DTD SVG 20010904//EN"
 "http://www.w3.org/TR/2001/REC-SVG-20010904/DTD/svg10.dtd">
<svg version="1.0" xmlns="http://www.w3.org/2000/svg"
 width="720.000000pt" height="720.000000pt" viewBox="0 0 720.000000 720.000000"
 preserveAspectRatio="xMidYMid meet">
<metadata>
Created by potrace 1.11, written by Peter Selinger 2001-2013
</metadata>
<g transform="translate(0.000000,720.000000) scale(0.100000,-0.100000)"
fill="#000000" stroke="none">
<path d="M1187 7039 c-105 -25 -210 -110 -256 -209 l-26 -55 -3 -1812 -2
-1812 -150 -3 -151 -3 -209 -445 c-130 -277 -215 -446 -224 -448 -10 -2 -16
-14 -16 -32 0 -15 -9 -47 -20 -71 -19 -44 -19 -44 0 -47 20 -3 20 -14 20 -453
l0 -449 300 0 300 0 0 -154 0 -154 -40 -111 c-22 -61 -36 -111 -32 -111 4 1
18 7 32 15 14 8 28 14 33 15 4 0 7 -56 7 -125 l0 -125 1875 0 1875 0 0 450 c0
387 2 450 15 450 12 0 12 6 0 48 -8 26 -15 62 -15 80 0 17 -4 32 -10 32 -7 0
-50 116 -50 136 0 2 47 4 104 4 l103 0 18 -62 c21 -78 21 -99 1 -168 -18 -60
-15 -118 11 -181 14 -35 13 -42 -8 -98 -66 -183 70 -366 349 -465 142 -51 261
-69 452 -70 288 -1 497 54 668 173 91 64 162 172 162 247 0 20 6 23 58 29 373
41 632 182 683 369 14 52 6 153 -14 193 -16 29 -15 34 4 79 17 38 21 61 17
118 -3 39 -12 85 -21 103 -16 30 -16 34 4 79 17 38 21 61 17 118 -3 39 -12 85
-21 102 -15 29 -15 35 4 85 25 64 23 154 -4 210 -17 34 -17 37 4 84 17 39 21
62 17 119 -3 39 -12 85 -21 103 -16 30 -16 34 4 79 17 38 21 61 17 118 -3 39
-12 85 -21 102 -15 29 -15 35 3 83 25 65 25 137 0 202 -18 49 -18 53 -2 83 24
44 24 189 -1 234 -17 30 -17 34 0 65 25 45 25 178 0 233 -18 40 -18 42 -1 75
30 55 26 170 -8 235 -55 105 -196 205 -364 257 -94 30 -230 57 -284 57 -77 0
-70 -71 -70 746 l0 733 142 173 c78 95 216 260 305 366 90 105 159 192 154
192 -9 0 -464 -165 -547 -198 l-51 -21 -5 69 c-10 135 -92 254 -218 314 l-65
31 -2395 2 c-1370 0 -2411 -3 -2433 -8z m4806 -150 c49 -13 115 -73 138 -124
13 -28 19 -64 19 -120 l0 -80 -157 -75 c-894 -427 -1859 -1132 -2761 -2014
l-142 -140 -33 16 c-17 9 -203 111 -412 227 -208 116 -382 211 -386 211 -9 0
24 52 -454 -705 -83 -132 -185 -292 -226 -355 l-74 -114 -3 72 -3 72 -64 0
-65 0 -3 1343 -2 1342 -3 -1647 -2 -1648 -155 0 -155 0 0 1788 0 1788 26 52
c27 55 64 87 123 108 47 17 4733 20 4794 3z m146 -2239 c-6 -4 -45 -10 -87
-13 -163 -13 -376 -85 -482 -163 -151 -111 -202 -250 -141 -389 17 -38 17 -42
0 -80 -25 -55 -25 -157 1 -212 19 -42 19 -43 -1 -88 -27 -61 -27 -149 0 -210
19 -42 19 -49 6 -75 -38 -73 -37 -187 2 -246 12 -18 11 -27 -7 -65 -11 -24
-20 -58 -20 -76 0 -31 -1 -32 -57 -38 -180 -19 -300 -49 -422 -106 l-84 -39
-373 0 c-206 0 -374 3 -374 7 0 4 9 16 19 27 10 12 83 104 161 206 133 173
140 185 118 191 -13 4 -70 17 -128 29 -119 25 -255 68 -350 112 -72 32 -153
78 -148 83 2 2 60 13 130 24 210 34 432 92 677 175 l156 53 93 144 c50 79 92
146 92 150 0 3 -53 25 -117 48 -128 45 -284 120 -291 139 -2 8 8 12 27 12 60
0 403 74 577 125 6 2 56 81 112 177 56 95 113 191 126 214 l25 41 -138 57
c-135 56 -227 104 -218 112 2 2 60 13 128 24 68 12 184 35 257 52 l132 32 27
45 c74 128 319 469 507 706 l71 89 3 -634 c1 -448 -1 -636 -9 -640z m-3751
-89 c48 -27 200 -110 337 -186 138 -76 252 -139 254 -141 2 -2 -52 -63 -120
-136 -308 -330 -516 -569 -721 -830 l-92 -118 -273 0 -273 0 0 87 0 86 89 141
c48 78 160 258 248 401 341 554 458 744 461 744 1 1 42 -21 90 -48z m4117 -85
c255 -57 395 -153 395 -273 0 -57 -18 -90 -80 -146 -161 -145 -597 -199 -935
-116 -99 24 -219 80 -263 122 -178 170 -7 360 382 423 106 17 404 11 501 -10z
m-766 -640 c104 -39 170 -56 287 -71 299 -40 609 10 814 131 l55 32 3 -34 c4
-46 -26 -93 -88 -139 -277 -203 -883 -203 -1160 0 -59 44 -90 91 -90 138 l0
36 56 -34 c31 -19 86 -45 123 -59z m-53 -276 c163 -77 308 -105 544 -104 260
0 441 40 602 133 l68 39 0 -35 c0 -49 -32 -96 -97 -142 -279 -200 -878 -198
-1153 4 -60 44 -90 91 -90 140 l0 37 33 -22 c17 -12 59 -34 93 -50z m-31 -286
c60 -33 204 -81 302 -101 111 -21 412 -24 523 -4 113 20 277 76 353 120 l67
40 0 -31 c0 -128 -218 -251 -510 -287 -301 -38 -639 38 -774 172 -44 44 -70
104 -59 133 5 13 9 12 32 -3 14 -9 44 -27 66 -39z m-56 -271 c2 -2 -5 -3 -17
-3 -14 0 -22 6 -22 16 0 14 3 15 18 3 9 -7 19 -15 21 -16z m1281 -78 c-64
-103 -268 -191 -500 -216 l-111 -12 -47 50 c-26 27 -62 61 -80 75 l-34 25 164
6 c237 9 439 60 569 142 l54 34 3 -35 c2 -22 -4 -47 -18 -69z m-5103 48 c-3
-10 -8 -36 -12 -58 -13 -83 21 -75 -333 -74 -174 0 -348 4 -387 8 -39 4 -112
3 -164 -2 -77 -8 -98 -14 -113 -31 -9 -11 -17 -27 -18 -34 0 -18 -119 -254
-140 -277 -9 -11 -20 -31 -22 -45 -3 -14 -9 -33 -13 -42 -7 -17 8 -18 238 -18
l246 0 -25 -72 -24 -73 -329 3 -329 3 95 202 c52 111 130 275 173 365 l79 162
541 0 c511 0 541 -1 537 -17z m3915 -138 c274 -41 458 -155 458 -282 0 -57
-18 -90 -79 -145 -96 -87 -297 -145 -536 -155 -509 -21 -877 202 -682 414 22
24 59 55 81 68 60 35 215 84 314 99 117 19 325 19 444 1z m1183 -217 c-51 -76
-219 -161 -380 -191 -88 -17 -235 -32 -235 -25 0 3 7 19 16 37 9 18 18 50 21
71 l5 39 67 6 c179 18 359 70 471 138 l55 32 3 -33 c2 -24 -5 -46 -23 -74z
m-2190 65 c-38 -88 -40 -172 -6 -248 17 -39 17 -42 -2 -84 -25 -57 -25 -145 0
-202 19 -44 19 -44 0 -89 -25 -56 -26 -159 -3 -214 9 -21 16 -40 16 -42 0 -3
-68 -3 -152 -2 l-151 3 -89 290 c-48 159 -92 293 -96 297 -4 4 -82 9 -172 10
l-165 3 -12 80 c-19 128 -19 125 40 172 l52 41 374 1 c352 1 373 0 366 -16z
m-988 -195 c5 -40 8 -76 6 -80 -2 -5 -35 -8 -74 -8 -54 0 -69 3 -69 15 0 8 9
19 20 25 31 17 26 56 -11 77 l-31 18 69 11 c37 7 71 12 74 13 3 0 10 -32 16
-71z m-1337 -68 c0 -14 -7 -20 -22 -20 -20 0 -21 1 -3 20 10 11 20 20 22 20 1
0 3 -9 3 -20z m4517 -93 c-62 -104 -256 -189 -500 -218 -54 -6 -101 -9 -104
-6 -3 4 2 24 11 47 9 22 16 53 16 69 0 28 2 29 63 36 206 21 417 87 512 158
19 15 20 14 23 -14 2 -19 -6 -46 -21 -72z m-1935 -122 c244 -112 597 -135 895
-60 92 24 274 102 287 124 25 41 36 -31 12 -78 -21 -39 -96 -106 -153 -134
-217 -109 -553 -135 -827 -66 -171 43 -322 141 -345 224 -15 55 -6 70 30 44
16 -11 61 -35 101 -54z m-2097 35 c4 -6 40 -180 81 -388 l74 -377 0 -370 c0
-203 -3 -380 -6 -392 l-6 -23 -294 0 -294 0 0 388 0 388 65 370 c36 203 68
379 70 392 5 22 8 22 155 22 92 0 151 -4 155 -10z m-1445 -4 c0 -16 -84 -135
-98 -139 -10 -2 -26 -29 -39 -68 -12 -35 -52 -118 -88 -184 -37 -66 -91 -168
-121 -227 -50 -100 -56 -108 -83 -108 l-29 0 22 73 c44 140 209 642 213 650 4
7 223 10 223 3z m974 -28 c-4 -18 -9 -49 -13 -68 l-7 -35 -133 -3 -132 -3 48
71 48 70 97 0 98 0 -6 -32z m1716 27 c0 -2 50 -165 110 -360 61 -196 110 -358
110 -361 0 -2 -261 -4 -579 -4 l-579 0 -5 23 c-3 12 -9 43 -12 70 l-7 47 487
0 c268 0 490 2 492 4 6 6 -124 427 -135 438 -5 5 -218 9 -474 8 l-465 0 -6 45
c-4 25 -9 56 -13 70 l-6 25 541 0 c298 0 541 -2 541 -5z m2790 -210 c-61 -98
-259 -187 -475 -214 -49 -6 -102 -11 -117 -11 l-26 0 19 50 c10 28 19 61 19
74 0 23 5 25 68 31 174 17 371 75 473 140 l54 34 3 -35 c2 -22 -4 -47 -18 -69z
m-1870 -146 c340 -124 825 -93 1086 70 47 29 49 30 52 10 6 -36 -7 -68 -44
-109 -192 -212 -769 -265 -1109 -101 -101 49 -158 98 -180 156 -28 72 -16 81
53 40 32 -19 96 -49 142 -66z m1870 -154 c-63 -102 -265 -190 -495 -216 -58
-6 -108 -9 -111 -6 -4 3 1 25 10 49 8 24 17 54 18 68 3 24 8 26 122 42 66 10
153 27 195 38 76 21 219 84 256 113 19 15 20 14 23 -19 2 -22 -4 -47 -18 -69z
m-1938 -120 c334 -153 850 -135 1148 41 l55 32 3 -29 c5 -42 -36 -107 -92
-147 -248 -178 -756 -203 -1065 -51 -96 47 -165 110 -180 164 -15 55 -6 70 30
44 16 -11 61 -35 101 -54z m-2672 25 c0 -10 -5 -42 -11 -70 l-11 -50 -239 0
-239 0 35 70 35 70 215 0 c207 0 215 -1 215 -20z m4620 -181 c-33 -79 -178
-168 -340 -208 -91 -22 -268 -46 -277 -37 -3 2 2 24 11 48 8 24 17 54 18 68 3
23 9 26 68 33 194 25 361 74 470 140 l55 32 3 -23 c2 -13 -2 -37 -8 -53z
m-1946 -144 c276 -128 698 -138 1007 -26 48 18 111 47 140 66 l54 34 3 -30 c5
-42 -36 -107 -92 -147 -248 -178 -756 -203 -1065 -51 -96 47 -165 110 -180
164 -15 55 -6 70 30 44 16 -11 62 -36 103 -54z m0 -300 c187 -87 472 -124 716
-95 168 21 352 80 445 143 39 27 40 27 43 6 17 -106 -162 -231 -400 -279 -328
-68 -724 1 -880 153 -46 44 -75 105 -64 133 5 13 10 12 36 -6 16 -12 63 -37
104 -55z"/>
</g>
</svg>
