/* XPM */
static char * area_icon [] = {
/* width height num_colors chars_per_pixel */
"    18   18        9            1",
/* colors */
". c #000000",
"# c #ff0000",
"a c #00ffff",
"b c #008400",
"c c #008484",
"d c #848484",
"e c #c6c6c6",
"f c #ffff00",
"g c None",
/* pixels */
"gggggggggggggggggg",
"gggggggggggggggggg",
"g.gggggggggggggggg",
"g.ggggggggg.gggggg",
"g..ggggggg.c.ggggg",
"g.c.ggggg.cbc.gggg",
"g.bc.ggg.cbcbc.ggg",
"g.cbc.g.cbcbcbc.gg",
"g.bcbc.cbcbc.cbc.g",
"g.cbcbcbcbc.#.cbcg",
"g..cbcbcbc.###.cbg",
"g.#..bcbc.#####.cg",
"g.###..c.#######.g",
"g.#####.#########g",
"g.###############g",
"g................g",
"gggggggggggggggggg",
"gggggggggggggggggg"
};
