/* XPM */
static char const * const bar_icon [] = {
/* width height num_colors chars_per_pixel */
"    18   18        9            1",
/* colors */
". c #000000",
"# c #ff0000",
"a c #00ffff",
"b c #008400",
"c c #008484",
"d c #848484",
"e c #c6c6c6",
"f c #ffff00",
"g c None",
/* pixels */
"gggggggggggggggggg",
"gggggggggggggggggg",
"g.gggggggggggggggg",
"g........ggggggggg",
"g.bbbbbb.ggggggggg",
"g..........ggggggg",
"g.########.ggggggg",
"g...............gg",
"g.gggggggggggggggg",
"g...............gg",
"g.bbbbbbbbbbbbb.gg",
"g............ggggg",
"g.##########.ggggg",
"g............ggggg",
"g.gggggggggggggggg",
"g................g",
"gggggggggggggggggg",
"gggggggggggggggggg"
};
