<?xml version="1.0" encoding="us-ascii" ?>
<!-- Generator: Adobe Illustrator 9.0, SVG Export Plug-In  -->
<!DOCTYPE svg PUBLIC "-//W3C//DTD SVG 20000303 Stylable//EN"   "http://www.w3.org/TR/2000/03/WD-SVG-20000303/DTD/svg-20000303-stylable.dtd" [
	<!ENTITY st0 "fill:url(#aigrd1);">
	<!ENTITY st1 "fill:url(#aigrd3);stroke:none;">
	<!ENTITY st2 "fill:url(#aigrd2);stroke:none;">
	<!ENTITY st3 "fill-rule:nonzero;clip-rule:nonzero;stroke:#000000;stroke-miterlimit:4;">
]>
<svg  width="82.2pt" height="82.2pt" viewBox="0 0 82.2 82.2" xml:space="preserve">
	<g id="Layer_x0020_1" style="&st3;">
		<linearGradient id="aigrd1" gradientUnits="userSpaceOnUse" x1="19.6328" y1="17.5483" x2="69.4199" y2="72.1693">
			<stop  offset="0" style="stop-color:#993366"/>
			<stop  offset="1" style="stop-color:#7A2952"/>
		</linearGradient>
		<path style="&st0;" d="M81.7,41.1c0,22.4-18.2,40.6-40.6,40.6S0.5,63.5,0.5,41.1S18.7,0.5,41.1,0.5s40.6,18.2,40.6,40.6z"/>
		<linearGradient id="aigrd2" gradientUnits="userSpaceOnUse" x1="21.6367" y1="49.5361" x2="81.5742" y2="88.6888">
			<stop  offset="0" style="stop-color:#9999FF"/>
			<stop  offset="1" style="stop-color:#9968FF"/>
		</linearGradient>
		<path style="&st2;" d="M41.1,41.1L23.2,77.5c5.4,2.7,11.5,4.2,17.9,4.2c16,0,29.8-9.2,36.4-22.7L41.1,41.1z"/>
		<linearGradient id="aigrd3" gradientUnits="userSpaceOnUse" x1="10.77" y1="32.3887" x2="43.6398" y2="81.2097">
			<stop  offset="0" style="stop-color:#FFFFCC"/>
			<stop  offset="0.9888" style="stop-color:#FFFFB8"/>
		</linearGradient>
		<path style="&st1;" d="M41.1,41.1l-40.6,0c0,16,9.2,29.8,22.7,36.4l17.9-36.4z"/>
	</g>
</svg>
