<?xml version="1.0" encoding="UTF-8" standalone="no"?>
<!DOCTYPE svg PUBLIC "-//W3C//DTD SVG 20010904//EN"
"http://www.w3.org/TR/2001/REC-SVG-20010904/DTD/svg10.dtd">
<!-- Created with Inkscape (http://www.inkscape.org/) -->
<svg
   id="svg1"
   sodipodi:version="0.32"
   inkscape:version="0.39"
   width="64.000000mm"
   height="60.000000mm"
   sodipodi:docbase="/home/manu/Desktop/Chart-icons"
   sodipodi:docname="chart_ring_1_1.svg"
   xmlns="http://www.w3.org/2000/svg"
   xmlns:cc="http://web.resource.org/cc/"
   xmlns:inkscape="http://www.inkscape.org/namespaces/inkscape"
   xmlns:sodipodi="http://sodipodi.sourceforge.net/DTD/sodipodi-0.dtd"
   xmlns:rdf="http://www.w3.org/1999/02/22-rdf-syntax-ns#"
   xmlns:dc="http://purl.org/dc/elements/1.1/"
   xmlns:xlink="http://www.w3.org/1999/xlink">
  <defs
     id="defs3">
    <linearGradient
       id="linearGradient4044">
      <stop
         style="stop-color:#ffffff;stop-opacity:0.0000000;"
         offset="0.0000000"
         id="stop4045" />
      <stop
         style="stop-color:#363636;stop-opacity:0.18750000;"
         offset="1.0000000"
         id="stop4046" />
    </linearGradient>
    <linearGradient
       id="linearGradient3418">
      <stop
         style="stop-color:#f7f7f7;stop-opacity:1.0000000;"
         offset="0.0000000"
         id="stop3419" />
      <stop
         style="stop-color:#dedede;stop-opacity:1.0000000;"
         offset="1.0000000"
         id="stop3420" />
    </linearGradient>
    <linearGradient
       id="linearGradient2791">
      <stop
         style="stop-color:#fbfbfb;stop-opacity:1.0000000;"
         offset="0.0000000"
         id="stop2792" />
      <stop
         style="stop-color:#e9e9e9;stop-opacity:1.0000000;"
         offset="1.0000000"
         id="stop2793" />
    </linearGradient>
    <linearGradient
       inkscape:collect="always"
       xlink:href="#linearGradient2791"
       id="linearGradient2794"
       x1="0.49693251"
       y1="0.058441557"
       x2="0.49079755"
       y2="0.96103895" />
    <linearGradient
       inkscape:collect="always"
       xlink:href="#linearGradient3418"
       id="linearGradient3417"
       x1="0.53846157"
       y1="0.012987013"
       x2="0.53254437"
       y2="0.98051947" />
    <linearGradient
       inkscape:collect="always"
       xlink:href="#linearGradient4044"
       id="linearGradient4043"
       x1="0.49689442"
       y1="0.012987013"
       x2="0.49689442"
       y2="0.99350649" />
  </defs>
  <sodipodi:namedview
     id="base"
     pagecolor="#ffffff"
     bordercolor="#666666"
     borderopacity="1.0"
     inkscape:pageopacity="0.0000000"
     inkscape:pageshadow="2"
     inkscape:zoom="4.4593316"
     inkscape:cx="85.039367"
     inkscape:cy="82.694721"
     inkscape:window-width="1270"
     inkscape:window-height="971"
     showborder="true"
     showgrid="true"
     gridspacingy="1.0000000mm"
     gridspacingx="1.0000000mm"
     gridoriginy="0.50000000mm"
     gridoriginx="0.50000000mm"
     inkscape:grid-points="true"
     inkscape:grid-bbox="true"
     gridtolerance="1.0000000px"
     inkscape:guide-bbox="true"
     inkscape:guide-points="true"
     guidetolerance="1.0000000mm"
     inkscape:window-x="0"
     inkscape:window-y="25"
     showguides="true">
    <sodipodi:guide
       orientation="vertical"
       position="23.994627"
       id="guide5924" />
    <sodipodi:guide
       orientation="vertical"
       position="57.631955"
       id="guide5925" />
    <sodipodi:guide
       orientation="vertical"
       position="92.166278"
       id="guide5926" />
    <sodipodi:guide
       orientation="vertical"
       position="126.25210"
       id="guide5927" />
  </sodipodi:namedview>
  <metadata
     id="metadata4">
    <rdf:RDF
       id="RDF5">
      <cc:Work
         rdf:about=""
         id="Work6">
        <dc:format
           id="format7">image/svg+xml</dc:format>
        <dc:type
           id="type9"
           rdf:resource="http://purl.org/dc/dcmitype/StillImage" />
      </cc:Work>
    </rdf:RDF>
  </metadata>
  <rect
     style="fill:url(#linearGradient4043);fill-opacity:0.74901998;fill-rule:evenodd;stroke:none;stroke-width:3.0000000pt;stroke-linecap:butt;stroke-linejoin:miter;stroke-opacity:1.0000000;"
     id="rect4047"
     width="184.25197"
     height="177.15660"
     x="23.031496"
     y="23.040251"
     rx="17.594519"
     ry="14.164467" />
  <rect
     style="fill:url(#linearGradient4043);fill-opacity:0.74901998;fill-rule:evenodd;stroke:none;stroke-width:3.0000000pt;stroke-linecap:butt;stroke-linejoin:miter;stroke-opacity:1.0000000;"
     id="rect3421"
     width="177.16536"
     height="173.62204"
     x="26.574802"
     y="23.031490"
     rx="17.594519"
     ry="14.164467" />
  <rect
     style="fill:url(#linearGradient2794);fill-opacity:0.74901998;fill-rule:evenodd;stroke:none;stroke-width:3.5262673;stroke-linecap:butt;stroke-linejoin:miter;stroke-miterlimit:4.0000000;stroke-opacity:1.0000000;"
     id="rect2169"
     width="170.38249"
     height="159.80026"
     x="30.118111"
     y="26.554472"
     rx="17.594519"
     ry="14.164467" />
  <rect
     style="fill:url(#linearGradient3417);fill-opacity:0.74901998;fill-rule:evenodd;stroke:none;stroke-width:3.0000000pt;stroke-linecap:butt;stroke-linejoin:miter;stroke-opacity:1.0000000;"
     id="rect3416"
     width="163.39728"
     height="149.19994"
     x="31.955462"
     y="31.699234"
     rx="17.594519"
     ry="14.164467" />
  <rect
     style="fill:none;fill-opacity:0.74901998;fill-rule:evenodd;stroke:#000000;stroke-width:3.5262673;stroke-linecap:butt;stroke-linejoin:miter;stroke-miterlimit:4.0000000;stroke-opacity:1.0000000;"
     id="rect5928"
     width="170.38249"
     height="159.80026"
     x="29.993284"
     y="26.574797"
     rx="17.594519"
     ry="14.164467" />
  <path
     style="fill:none;fill-opacity:1.0000000;fill-rule:evenodd;stroke:#83a67f;stroke-width:6.3750000;stroke-linecap:butt;stroke-linejoin:miter;stroke-opacity:1.0000000;"
     d="M -18.851812,33.928311 C -4.0899124,33.701211 8.4008876,48.463111 2.2689876,64.814711"
     id="path6293"
     sodipodi:nodetypes="cc"
     transform="matrix(2.189392,0.000000,0.000000,2.189392,156.8993,-17.98082)" />
  <path
     style="fill:none;fill-opacity:1.0000000;fill-rule:evenodd;stroke:#83a67f;stroke-width:6.6250000;stroke-linecap:butt;stroke-linejoin:miter;stroke-opacity:1.0000000;"
     d="M -18.965322,40.514381 C -8.4049224,40.627881 -2.6137224,49.257881 -2.8409224,56.752481"
     id="path6294"
     sodipodi:nodetypes="cc"
     transform="matrix(2.189392,0.000000,0.000000,2.189392,156.8993,-17.98082)" />
  <path
     style="fill:none;fill-opacity:1.0000000;fill-rule:evenodd;stroke:#d1940c;stroke-width:6.1250010;stroke-linecap:butt;stroke-linejoin:miter;stroke-opacity:1.0000000;"
     d="M 2.1531476,65.040338 C -4.3549724,82.018432 -26.394892,84.085088 -36.867860,70.929045"
     id="path6295"
     sodipodi:nodetypes="cc"
     transform="matrix(2.189392,0.000000,0.000000,2.189392,156.8993,-17.98082)" />
  <path
     style="fill:none;fill-opacity:1.0000000;fill-rule:evenodd;stroke:#d1940c;stroke-width:6.7500010;stroke-linecap:butt;stroke-linejoin:miter;stroke-opacity:1.0000000;"
     d="M -2.8432824,56.864535 C -2.9923624,67.029434 -12.995672,76.136349 -25.399002,71.837511"
     id="path6296"
     sodipodi:nodetypes="cc"
     transform="matrix(2.189392,0.000000,0.000000,2.189392,156.8993,-17.98082)" />
  <path
     style="fill:none;fill-opacity:1.0000000;fill-rule:evenodd;stroke:#c5d2c8;stroke-width:6.5000010;stroke-linecap:butt;stroke-linejoin:miter;stroke-opacity:1.0000000;"
     d="M -37.249786,70.718022 C -48.413587,56.128328 -38.204450,33.667577 -19.267192,33.910796"
     id="path6297"
     sodipodi:nodetypes="cc"
     transform="matrix(2.189392,0.000000,0.000000,2.189392,156.8993,-17.98082)" />
  <path
     style="fill:none;fill-opacity:1.0000000;fill-rule:evenodd;stroke:#c5d2c8;stroke-width:6.5000010;stroke-linecap:butt;stroke-linejoin:miter;stroke-opacity:1.0000000;"
     d="M -19.194882,40.626460 C -26.423212,40.939680 -32.683892,45.210317 -34.649442,52.883920 C -36.594531,60.591196 -33.050873,68.536437 -25.512522,71.610460"
     id="path6298"
     sodipodi:nodetypes="csc"
     transform="matrix(2.189392,0.000000,0.000000,2.189392,156.8993,-17.98082)" />
  <path
     style="font-size:12.000000;fill:none;fill-opacity:1.0000000;fill-rule:evenodd;stroke:#000000;stroke-width:0.80919887;stroke-miterlimit:4.0000000;stroke-dasharray:none;"
     d="M -0.56981237,63.679111 L 5.1077876,65.950211 M -34.295014,68.902611 L -39.291414,72.877011 M -18.965412,44.148111 L -18.965412,30.975911 M 6.9248876,56.752511 C 6.9248876,71.043911 -4.6739124,82.642711 -18.965312,82.642711 C -33.256614,82.642711 -44.855514,71.043911 -44.855514,56.752511 C -44.855514,42.461111 -33.256614,30.862411 -18.965312,30.862411 C -4.6739124,30.862411 6.9248876,42.461111 6.9248876,56.752511 z M 0.79308763,56.752511 C 0.79308763,67.659111 -8.0586124,76.510911 -18.965212,76.510911 C -29.871814,76.510911 -38.723514,67.659111 -38.723514,56.752511 C -38.723514,45.846011 -29.871814,36.994311 -18.965212,36.994311 C -8.0586124,36.994311 0.79308763,45.846011 0.79308763,56.752511 z "
     id="path157"
     transform="matrix(2.189392,0.000000,0.000000,2.189392,156.8993,-17.98082)" />
  <path
     style="font-size:12.000000;fill:none;fill-rule:evenodd;stroke:#000000;stroke-width:0.80919887;stroke-miterlimit:4.0000000;stroke-dasharray:none;"
     d="M -18.965412,36.994211 L -18.965412,44.034511 M -6.2475124,56.865911 L 0.79278763,56.866011 M -23.848212,68.221211 L -26.914112,75.148011 M 0.79278763,56.752411 C 0.79278763,67.659011 -8.0588124,76.510611 -18.965412,76.510611 C -29.871914,76.510611 -38.723714,67.659011 -38.723714,56.752411 C -38.723714,45.845911 -29.871914,36.994211 -18.965412,36.994211 C -8.0588124,36.994211 0.79278763,45.845911 0.79278763,56.752411 z M -6.2475124,56.752411 C -6.2475124,63.772711 -11.945112,69.470311 -18.965412,69.470311 C -25.985712,69.470311 -31.683414,63.772711 -31.683414,56.752411 C -31.683414,49.732111 -25.985712,44.034511 -18.965412,44.034511 C -11.945112,44.034511 -6.2475124,49.732111 -6.2475124,56.752411 z "
     id="path6300"
     transform="matrix(2.189392,0.000000,0.000000,2.189392,156.8993,-17.98082)" />
</svg>
