<?xml version="1.0" encoding="us-ascii" ?>
<!-- Generator: Adobe Illustrator 9.0, SVG Export Plug-In  -->
<!DOCTYPE svg PUBLIC "-//W3C//DTD SVG 20000303 Stylable//EN"   "http://www.w3.org/TR/2000/03/WD-SVG-20000303/DTD/svg-20000303-stylable.dtd" [
	<!ENTITY st0 "fill:url(#aigrd1);">
	<!ENTITY st1 "fill:url(#aigrd6);stroke:none;">
	<!ENTITY st2 "fill:url(#aigrd4);stroke-width:0.6888;">
	<!ENTITY st3 "fill:url(#aigrd3);stroke:none;">
	<!ENTITY st4 "fill:url(#aigrd5);stroke:none;">
	<!ENTITY st5 "fill:url(#aigrd2);stroke:none;">
	<!ENTITY st6 "fill-rule:nonzero;clip-rule:nonzero;stroke:#000000;stroke-miterlimit:4;">
]>
<svg  width="82.2pt" height="82.2pt" viewBox="0 0 82.2 82.2" xml:space="preserve">
	<g id="Layer_x0020_1" style="&st6;">
		<linearGradient id="aigrd1" gradientUnits="userSpaceOnUse" x1="19.6348" y1="17.5508" x2="69.4219" y2="72.1719">
			<stop  offset="0" style="stop-color:#993366"/>
			<stop  offset="1" style="stop-color:#7A2952"/>
		</linearGradient>
		<path style="&st0;" d="M81.7,41.1c0,22.4-18.2,40.6-40.6,40.6S0.5,63.5,0.5,41.1S18.7,0.5,41.1,0.5s40.6,18.2,40.6,40.6z"/>
		<linearGradient id="aigrd2" gradientUnits="userSpaceOnUse" x1="21.6367" y1="49.5361" x2="81.5742" y2="88.6888">
			<stop  offset="0" style="stop-color:#9999FF"/>
			<stop  offset="1" style="stop-color:#9968FF"/>
		</linearGradient>
		<path style="&st5;" d="M41.1,41.1L23.2,77.5c5.4,2.7,11.5,4.2,17.9,4.2c16,0,29.8-9.2,36.4-22.7L41.1,41.1z"/>
		<linearGradient id="aigrd3" gradientUnits="userSpaceOnUse" x1="10.77" y1="32.3887" x2="43.6398" y2="81.2097">
			<stop  offset="0" style="stop-color:#FFFFCC"/>
			<stop  offset="0.9888" style="stop-color:#FFFFB8"/>
		</linearGradient>
		<path style="&st3;" d="M41.1,41.1l-40.6,0c0,16,9.2,29.8,22.7,36.4l17.9-36.4z"/>
		<linearGradient id="aigrd4" gradientUnits="userSpaceOnUse" x1="26.3159" y1="24.8804" x2="60.6082" y2="62.5022">
			<stop  offset="0" style="stop-color:#993366"/>
			<stop  offset="1" style="stop-color:#7A2952"/>
		</linearGradient>
		<path style="&st2;" d="M41.1,13.1c-15.4,0-28,12.5-28,28c0,15.4,12.5,28,28,28c15.4,0,28-12.5,28-28c0-15.4-12.5-28-28-28z M41.1,56.8c-8.7,0-15.7-7-15.7-15.7s7-15.7,15.7-15.7s15.7,7,15.7,15.7s-7,15.7-15.7,15.7z"/>
		<linearGradient id="aigrd5" gradientUnits="userSpaceOnUse" x1="34.9023" y1="40.4746" x2="73.0145" y2="65.3705">
			<stop  offset="0" style="stop-color:#9999FF"/>
			<stop  offset="1" style="stop-color:#9968FF"/>
		</linearGradient>
		<path style="&st4;" d="M69.1,41.1c0-3.2-0.5-6.2-1.5-9L56,36c0.5,1.6,0.9,3.3,0.9,5.1c0,8.7-7,15.7-15.7,15.7c-2.5,0-4.9-0.6-6.9-1.6l-5.4,11c3.7,1.8,7.9,2.9,12.4,2.9c15.4,0,28-12.5,28-28z"/>
		<linearGradient id="aigrd6" gradientUnits="userSpaceOnUse" x1="12.4072" y1="31.9868" x2="40.1898" y2="73.2519">
			<stop  offset="0" style="stop-color:#FFFFCC"/>
			<stop  offset="0.9888" style="stop-color:#FFFFB8"/>
		</linearGradient>
		<path style="&st1;" d="M28.7,66.2l5.4-11c-5.2-2.6-8.8-7.9-8.8-14.1c0-1.8,0.3-3.5,0.9-5.1l-11.6-4c-1,2.9-1.5,5.9-1.5,9.1c0,11,6.4,20.5,15.6,25.1z"/>
	</g>
</svg>
