/* XPM */
static char const * const column_icon [] = {
/* width height num_colors chars_per_pixel */
"    18   18        9            1",
/* colors */
". c #000000",
"# c #ff0000",
"a c #00ffff",
"b c #008400",
"c c #008484",
"d c #848484",
"e c #c6c6c6",
"f c #ffff00",
"g c None",
/* pixels */
"gggggggggggggggggg",
"gggggggggggggggggg",
"g.gggggggggg...ggg",
"g.gggggggggg.b.ggg",
"g.gggggggggg.b.ggg",
"g.gggggggggg.b.ggg",
"g.gggggggggg.b.ggg",
"g.gggggggg...b.ggg",
"g.gggggggg.#.b.ggg",
"g.gggg...g.#.b.ggg",
"g.gggg.b.g.#.b.ggg",
"g.gg...b.g.#.b.ggg",
"g.gg.#.b.g.#.b.ggg",
"g.gg.#.b.g.#.b.ggg",
"g.gg.#.b.g.#.b.ggg",
"g................g",
"gggggggggggggggggg",
"gggggggggggggggggg"
};
