/* XPM */
static char const * const scatter_icon [] = {
/* width height num_colors chars_per_pixel */
"    18   18        9            1",
/* colors */
". c #000000",
"# c #ff0000",
"a c #00ffff",
"b c #008400",
"c c #008484",
"d c #848484",
"e c #c6c6c6",
"f c #ffff00",
"g c None",
/* pixels */
"gggggggggggggggggg",
"gggggggggggggggggg",
"g.gggggggggggggggg",
"g.gggggggggg.ggggg",
"g.gggggggggggggggg",
"g.gggggggggggggggg",
"g.ggggg#ggggggg.gg",
"g.ggggggggggg#gggg",
"g.gg.ggg.ggggggggg",
"g.gggg.ggggggggggg",
"g.ggggggggg.gggggg",
"g.g#ggggg#gggggggg",
"g.ggg.gggggggg#ggg",
"g.gggggggg#ggggggg",
"g.gggggggggggggggg",
"g................g",
"gggggggggggggggggg",
"gggggggggggggggggg"
};
