<?xml version="1.0" standalone="no"?>
<!DOCTYPE svg PUBLIC "-//W3C//DTD SVG 20010904//EN"
 "http://www.w3.org/TR/2001/REC-SVG-20010904/DTD/svg10.dtd">
<svg version="1.0" xmlns="http://www.w3.org/2000/svg"
 width="736.000000pt" height="736.000000pt" viewBox="0 0 736.000000 736.000000"
 preserveAspectRatio="xMidYMid meet">
<metadata>
Created by potrace 1.11, written by Peter Selinger 2001-2013
</metadata>
<g transform="translate(0.000000,736.000000) scale(0.100000,-0.100000)"
fill="#000000" stroke="none">
<path d="M2327 7350 c-208 -37 -443 -161 -643 -338 l-89 -78 -100 -17 c-253
-42 -452 -126 -628 -266 -220 -175 -378 -463 -418 -758 -18 -139 -7 -232 56
-463 168 -615 261 -1084 310 -1570 22 -210 45 -595 45 -742 l0 -127 -81 -3
-82 -3 -210 -447 c-123 -261 -216 -448 -224 -448 -8 0 -13 -12 -13 -30 0 -17
-9 -48 -20 -70 -25 -48 -25 -50 0 -50 20 0 20 -7 20 -450 l0 -450 295 0 295 0
0 -197 c0 -109 3 -275 7 -369 l6 -171 981 -5 c540 -3 1378 -3 1864 0 l882 5 0
444 c0 387 2 443 15 443 19 0 19 7 0 60 -8 23 -15 55 -15 70 0 16 -4 30 -9 32
-5 2 -18 33 -29 71 l-20 67 102 0 101 0 19 -62 c23 -79 23 -102 1 -158 -20
-53 -16 -130 10 -181 17 -31 17 -35 -5 -96 -28 -79 -23 -147 15 -223 159 -314
892 -426 1342 -205 149 73 239 170 263 281 l11 52 82 7 c117 10 295 57 393
105 101 49 201 138 238 213 32 62 35 157 7 227 -16 43 -16 47 1 88 26 58 25
148 -1 206 l-20 46 21 46 c27 62 27 147 -1 209 -20 45 -20 48 -3 78 24 45 24
189 0 234 -17 30 -17 33 3 78 27 60 27 149 1 209 -13 28 -17 48 -11 57 35 54
40 177 10 244 -20 45 -20 46 -1 88 12 26 20 64 20 102 0 38 -8 76 -20 102 -19
42 -19 43 1 88 30 67 25 190 -10 244 -6 9 -2 29 10 57 30 66 26 170 -7 236
-12 23 -11 32 6 70 23 51 25 135 6 191 -58 162 -290 298 -577 337 -46 6 -99
14 -116 16 l-33 5 0 1002 c0 608 -4 1026 -10 1062 -22 134 -111 250 -230 298
l-55 22 -1117 3 -1118 2 -60 90 c-78 116 -169 213 -227 241 -44 21 -47 21
-124 6 -98 -19 -168 -51 -238 -108 -29 -24 -59 -48 -67 -53 -9 -7 -33 9 -86
60 -117 111 -258 193 -393 229 -70 19 -259 28 -328 15z m306 -97 c230 -56 436
-239 659 -583 143 -220 258 -446 365 -715 30 -77 59 -144 64 -149 11 -13 -37
161 -81 289 -21 60 -37 111 -35 113 8 8 541 -313 790 -476 339 -222 575 -423
713 -611 71 -95 154 -258 178 -346 30 -111 14 -273 -39 -405 -119 -294 -424
-511 -891 -634 -117 -31 -277 -61 -441 -82 -151 -20 -557 -24 -994 -11 l-275
9 -65 33 c-219 109 -502 156 -815 135 -81 -5 -156 -15 -167 -20 -10 -6 -19
-21 -19 -33 l0 -23 263 1 c239 0 271 -2 366 -23 112 -25 271 -79 271 -92 0 -4
-21 -10 -47 -13 -85 -10 -226 -56 -323 -104 -232 -116 -355 -323 -349 -592 2
-110 0 -112 -108 -163 -89 -42 -214 -49 -333 -19 -100 25 -248 95 -307 146
l-43 37 0 141 c0 299 -37 787 -86 1121 -60 418 -113 660 -299 1365 -50 190
-47 317 11 508 90 298 307 542 591 662 71 31 233 81 260 81 8 0 -20 -40 -64
-91 -97 -113 -213 -261 -213 -273 0 -5 75 65 168 155 273 267 418 391 573 492
261 169 499 226 722 170z m949 -202 c107 -110 270 -384 372 -624 50 -117 109
-281 121 -336 l7 -35 -28 19 c-16 11 -139 83 -273 162 l-244 142 -87 168 c-80
157 -153 276 -223 366 -29 37 -29 38 -11 58 39 43 121 95 184 116 102 35 115
32 182 -36z m2993 -2745 c191 -42 308 -101 363 -181 81 -119 9 -238 -189 -315
-162 -62 -377 -89 -570 -70 -410 39 -633 203 -520 381 57 91 222 165 446 199
89 13 387 5 470 -14z m-766 -637 c182 -69 418 -99 614 -80 181 17 318 53 442
115 l105 53 0 -29 c0 -98 -138 -196 -355 -255 -92 -24 -116 -26 -300 -27 -206
-1 -257 5 -385 46 -151 48 -270 134 -290 210 -6 21 -8 43 -5 47 3 5 31 -6 62
-25 31 -19 82 -43 112 -55z m-39 -280 c154 -70 327 -102 535 -102 238 0 415
39 583 128 l82 44 0 -33 c0 -98 -162 -208 -378 -257 -115 -26 -331 -35 -456
-20 -252 32 -447 129 -492 246 -23 60 -12 71 39 39 23 -14 62 -34 87 -45z
m-49 -273 c166 -87 347 -127 585 -127 234 0 419 40 582 126 l82 44 0 -33 c0
-45 -45 -104 -111 -148 -251 -165 -729 -185 -1035 -44 -113 53 -194 139 -194
206 0 11 2 20 4 20 2 0 41 -20 87 -44z m-51 -272 c0 -2 -9 -4 -21 -4 -11 0
-18 4 -14 10 5 8 35 3 35 -6z m1300 -14 c0 -127 -228 -250 -521 -281 l-111
-13 -35 43 c-20 23 -56 57 -81 76 l-45 35 134 0 c243 0 476 57 614 149 41 27
45 26 45 -9z m-4576 -277 c31 -159 56 -294 56 -300 0 -10 -59 -13 -260 -13
-201 0 -260 3 -260 13 0 25 98 566 105 576 4 7 61 11 154 11 l149 0 56 -287z
m-1433 225 c35 -25 75 -51 87 -57 13 -7 21 -15 18 -18 -3 -4 -47 -9 -98 -12
l-91 -6 -81 -162 c-45 -88 -87 -168 -94 -176 -7 -8 -15 -24 -17 -35 -2 -12 -9
-30 -15 -42 -6 -12 -9 -24 -6 -27 3 -3 113 -6 245 -6 l239 0 -10 -31 c-5 -17
-14 -48 -20 -68 l-10 -38 -324 0 c-178 0 -324 2 -324 4 0 5 174 379 277 596
l59 125 51 -1 c43 -1 61 -8 114 -46z m2744 17 c3 -16 21 -133 40 -260 19 -126
37 -242 40 -257 l5 -28 -70 0 c-73 0 -84 6 -50 28 37 23 17 77 -37 97 -1 0
-12 68 -24 150 -12 83 -25 154 -29 159 -5 4 -242 8 -529 7 l-521 -1 -5 22 c-3
13 -9 43 -13 68 l-8 45 598 0 598 0 5 -30z m-1859 -90 c-3 -9 -19 -15 -38 -15
l-32 0 34 25 c34 25 48 21 36 -10z m3991 -44 c200 -43 322 -112 369 -207 25
-51 26 -58 14 -96 -25 -85 -94 -144 -225 -193 -220 -83 -520 -96 -775 -34
-429 105 -456 382 -50 504 67 20 121 30 255 49 70 10 324 -5 412 -23z m1133
-134 c0 -91 -147 -196 -347 -246 -82 -21 -271 -46 -280 -38 -2 3 0 14 6 25 6
11 16 42 21 69 l11 49 102 12 c171 20 378 87 452 145 29 24 35 21 35 -16z m0
-292 c0 -36 -22 -74 -67 -116 -94 -88 -250 -145 -467 -169 -50 -5 -91 -8 -93
-7 -1 2 6 27 17 55 11 29 20 60 20 71 0 15 14 20 98 30 171 21 333 70 432 132
55 35 60 35 60 4z m-750 -175 c-55 -205 -584 -327 -982 -226 -201 51 -348 157
-348 251 0 15 3 25 8 23 198 -101 311 -138 485 -157 288 -32 593 20 778 133
30 18 58 30 62 26 5 -4 3 -26 -3 -50z m-3212 -335 l74 -360 5 -235 c3 -129 2
-293 -2 -365 l-7 -130 -291 5 -292 5 -3 328 -2 328 60 342 c33 188 65 366 71
395 l11 53 151 -3 152 -3 73 -360z m-550 308 c-6 -27 -11 -57 -13 -68 -4 -20
-12 -20 -537 -20 l-532 0 -72 -220 c-39 -121 -70 -223 -67 -227 2 -5 256 -8
564 -8 529 0 560 -1 556 -17 -3 -10 -8 -39 -12 -65 l-6 -48 -645 0 c-354 0
-644 3 -644 8 0 4 14 50 31 102 60 188 190 585 194 598 3 9 132 12 598 12
l594 0 -9 -47z m1734 -40 c33 -111 83 -273 146 -475 l50 -158 -572 0 -573 0
-11 51 c-7 28 -12 57 -12 65 0 12 71 14 486 13 267 0 488 2 491 5 3 3 -25 106
-63 228 l-70 223 -214 2 c-118 1 -330 2 -471 2 l-256 1 -7 43 c-3 23 -9 52
-12 65 l-6 22 534 0 534 0 26 -87z m2752 -134 c-71 -103 -281 -189 -507 -207
-86 -7 -97 -6 -91 8 4 8 14 41 22 72 l15 57 46 6 c227 27 420 86 516 158 19
15 20 14 23 -20 2 -25 -4 -46 -24 -74z m-1857 -139 c338 -123 812 -95 1076 64
l57 35 0 -30 c0 -115 -186 -229 -444 -274 -166 -28 -436 -15 -576 29 -171 53
-288 135 -311 219 -5 20 -7 42 -4 47 3 5 31 -7 63 -26 32 -18 95 -47 139 -64z
m1883 -91 c0 -36 -6 -47 -57 -98 -97 -96 -281 -165 -480 -178 l-92 -6 19 52
c11 28 20 60 20 70 0 16 9 21 48 25 229 28 424 88 517 160 11 8 21 16 23 16 1
0 2 -18 2 -41z m-1855 -218 c341 -114 798 -80 1051 78 27 16 53 26 57 22 5 -5
4 -26 -2 -48 -21 -76 -139 -162 -288 -211 -186 -61 -493 -69 -688 -18 -217 57
-355 156 -355 255 l0 29 68 -38 c37 -22 108 -53 157 -69z m1828 -145 c-77
-109 -280 -192 -520 -212 l-82 -7 19 52 c11 28 20 60 20 70 0 23 19 31 72 31
111 0 354 71 458 133 l55 33 3 -29 c2 -21 -6 -43 -25 -71z m-1932 -112 c240
-116 622 -142 918 -63 89 24 197 69 248 103 20 14 41 22 45 18 17 -17 -6 -75
-48 -121 -105 -117 -346 -191 -620 -191 -351 0 -664 137 -664 290 l0 32 36
-22 c19 -13 58 -33 85 -46z m127 -348 c124 -39 259 -57 418 -58 162 0 199 4
347 39 74 17 139 41 212 77 l105 53 0 -30 c0 -123 -227 -243 -521 -278 -382
-44 -809 104 -809 280 l0 30 83 -44 c45 -24 120 -55 165 -69z"/>
<path d="M2326 6911 c-12 -19 18 -38 80 -51 235 -49 472 -293 675 -696 109
-216 179 -440 179 -569 0 -161 -133 -300 -360 -375 -128 -43 -204 -53 -364
-48 -133 4 -148 7 -258 45 -65 22 -118 36 -118 32 0 -5 -7 -9 -15 -9 -55 0 33
-56 147 -94 258 -87 602 -41 828 109 213 142 249 310 139 650 -41 127 -147
354 -219 470 -205 329 -440 530 -635 543 -48 3 -75 1 -79 -7z"/>
<path d="M2425 6791 c-95 -24 -196 -116 -255 -233 -50 -101 -64 -169 -58 -293
6 -109 25 -172 80 -258 69 -108 189 -146 300 -95 115 54 221 203 254 359 47
220 -63 478 -221 518 -48 12 -56 12 -100 2z m68 -169 c24 -21 23 -114 -2 -167
-22 -47 -64 -89 -105 -105 -25 -9 -34 -8 -55 8 -21 16 -27 29 -29 73 -4 66 18
125 62 168 33 32 82 53 101 43 6 -3 18 -12 28 -20z m-33 -507 c17 -21 6 -43
-26 -51 -31 -8 -57 5 -62 31 -7 34 63 50 88 20z"/>
</g>
</svg>
